<svg aria-hidden="true" style="position: absolute; width: 0; height: 0; overflow: hidden;" version="1.1" xmlns="http://www.w3.org/2000/svg" xmlns:xlink="http://www.w3.org/1999/xlink">
  <defs>
    <symbol id="instagram" viewBox="0 0 16 16">
      <path d="M15.9843 4.70395C15.9468 3.85381 15.8093 3.26935 15.6124 2.7629C15.4092 2.22532 15.0967 1.74402 14.6872 1.34392C14.2871 0.937592 13.8026 0.621856 13.2713 0.421866C12.7619 0.224928 12.1805 0.08745 11.3303 0.049967C10.4738 0.00930969 10.2019 -9.15527e-05 8.02963 -9.15527e-05C5.85733 -9.15527e-05 5.58543 0.00930969 4.73212 0.0467926C3.88197 0.0842755 3.29751 0.221876 2.79119 0.418691C2.25348 0.621856 1.77219 0.934417 1.37209 1.34392C0.965758 1.74402 0.650145 2.22849 0.450033 2.75985C0.253096 3.26935 0.115618 3.85064 0.0781347 4.70078C0.0374774 5.55727 0.0280762 5.82917 0.0280762 8.00147C0.0280762 10.1738 0.0374774 10.4457 0.0749603 11.299C0.112443 12.1491 0.250043 12.7336 0.446981 13.24C0.650145 13.7776 0.965758 14.2589 1.37209 14.659C1.77219 15.0654 2.25666 15.3811 2.78801 15.5811C3.29751 15.778 3.8788 15.9155 4.72906 15.953C5.58226 15.9906 5.85428 15.9999 8.02658 15.9999C10.1989 15.9999 10.4708 15.9906 11.3241 15.953C12.1742 15.9155 12.7587 15.778 13.265 15.5811C14.3403 15.1653 15.1904 14.3152 15.6062 13.24C15.803 12.7305 15.9406 12.1491 15.9781 11.299C16.0156 10.4457 16.025 10.1738 16.025 8.00147C16.025 5.82917 16.0218 5.55727 15.9843 4.70395ZM14.5435 11.2365C14.509 12.0179 14.3778 12.4398 14.2684 12.7211C13.9995 13.4182 13.4463 13.9714 12.7493 14.2402C12.468 14.3496 12.043 14.4809 11.2646 14.5152C10.4207 14.5528 10.1676 14.5621 8.03281 14.5621C5.89799 14.5621 5.64172 14.5528 4.80085 14.5152C4.01945 14.4809 3.5975 14.3496 3.31619 14.2402C2.96932 14.112 2.65359 13.9089 2.39731 13.6432C2.13163 13.3837 1.92847 13.0712 1.80027 12.7243C1.69087 12.443 1.55962 12.0179 1.52532 11.2397C1.48771 10.3957 1.47843 10.1425 1.47843 8.0077C1.47843 5.87288 1.48771 5.61661 1.52532 4.77587C1.55962 3.99446 1.69087 3.57251 1.80027 3.2912C1.92847 2.94421 2.13163 2.6286 2.40049 2.3722C2.65981 2.10652 2.97237 1.90336 3.31937 1.77528C3.60067 1.66588 4.0258 1.53463 4.80403 1.5002C5.64794 1.46272 5.90117 1.45332 8.03586 1.45332C10.1738 1.45332 10.4269 1.46272 11.2678 1.5002C12.0492 1.53463 12.4712 1.66588 12.7525 1.77528C13.0993 1.90336 13.4151 2.10652 13.6714 2.3722C13.937 2.63165 14.1402 2.94421 14.2684 3.2912C14.3778 3.57251 14.509 3.99752 14.5435 4.77587C14.581 5.61978 14.5904 5.87288 14.5904 8.0077C14.5904 10.1425 14.581 10.3926 14.5435 11.2365Z"/>
      <path d="M8.02973 3.89127C5.76061 3.89127 3.91956 5.7322 3.91956 8.00144C3.91956 10.2707 5.76061 12.1116 8.02973 12.1116C10.299 12.1116 12.1399 10.2707 12.1399 8.00144C12.1399 5.7322 10.299 3.89127 8.02973 3.89127ZM8.02973 10.6676C6.55764 10.6676 5.36356 9.47365 5.36356 8.00144C5.36356 6.52923 6.55764 5.33527 8.02973 5.33527C9.50194 5.33527 10.6959 6.52923 10.6959 8.00144C10.6959 9.47365 9.50194 10.6676 8.02973 10.6676Z"/>
      <path d="M13.262 3.7288C13.262 4.25869 12.8323 4.68834 12.3023 4.68834C11.7724 4.68834 11.3428 4.25869 11.3428 3.7288C11.3428 3.19878 11.7724 2.76926 12.3023 2.76926C12.8323 2.76926 13.262 3.19878 13.262 3.7288Z"/>
    </symbol>
    <symbol id="twitter" viewBox="0 0 16 16">
      <path d="M16 3.03891C15.405 3.29991 14.771 3.47291 14.11 3.55691C14.79 3.15091 15.309 2.51291 15.553 1.74391C14.919 2.12191 14.219 2.38891 13.473 2.53791C12.871 1.89691 12.013 1.49991 11.077 1.49991C9.261 1.49991 7.799 2.97391 7.799 4.78091C7.799 5.04091 7.821 5.29091 7.875 5.52891C5.148 5.39591 2.735 4.08891 1.114 2.09791C0.831 2.58891 0.665 3.15091 0.665 3.75591C0.665 4.89191 1.25 5.89891 2.122 6.48191C1.595 6.47191 1.078 6.31891 0.64 6.07791C0.64 6.08791 0.64 6.10091 0.64 6.11391C0.64 7.70791 1.777 9.03191 3.268 9.33691C3.001 9.40991 2.71 9.44491 2.408 9.44491C2.198 9.44491 1.986 9.43291 1.787 9.38891C2.212 10.6879 3.418 11.6429 4.852 11.6739C3.736 12.5469 2.319 13.0729 0.785 13.0729C0.516 13.0729 0.258 13.0609 0 13.0279C1.453 13.9649 3.175 14.4999 5.032 14.4999C11.068 14.4999 14.368 9.49991 14.368 5.16591C14.368 5.02091 14.363 4.88091 14.356 4.74191C15.007 4.27991 15.554 3.70291 16 3.03891Z"/>
    </symbol>
    <symbol id="facebook" viewBox="0 0 16 16">
      <path d="M10.6646 2.65658H12.1253V0.112575C11.8733 0.0779084 11.0066 -9.15527e-05 9.9973 -9.15527e-05C7.8913 -9.15527e-05 6.44863 1.32458 6.44863 3.75924V5.99991H4.12463V8.84391H6.44863V15.9999H9.29797V8.84458H11.528L11.882 6.00058H9.2973V4.04124C9.29797 3.21924 9.5193 2.65658 10.6646 2.65658Z"/>
    </symbol>
    <symbol id="linkedin" viewBox="0 0 16 16">
      <path d="M15.996 16V15.9993H16V10.1313C16 7.26062 15.382 5.04929 12.026 5.04929C10.4126 5.04929 9.32997 5.93462 8.88797 6.77395H8.8413V5.31729H5.6593V15.9993H8.97264V10.71C8.97264 9.31729 9.23664 7.97062 10.9613 7.97062C12.6606 7.97062 12.686 9.55995 12.686 10.7993V16H15.996Z"/>
      <path d="M0.264038 5.31787H3.58137V15.9999H0.264038V5.31787Z"/>
      <path d="M1.92133 -9.15527e-05C0.860667 -9.15527e-05 0 0.860575 0 1.92124C0 2.98191 0.860667 3.86058 1.92133 3.86058C2.982 3.86058 3.84267 2.98191 3.84267 1.92124C3.842 0.860575 2.98133 -9.15527e-05 1.92133 -9.15527e-05V-9.15527e-05Z"/>
    </symbol>
    <symbol id="instagram-foot" viewBox="0 0 24 24">
      <path d="M23.9765 7.05607C23.9202 5.78085 23.714 4.90416 23.4186 4.14449C23.1139 3.33812 22.645 2.61617 22.0308 2.01602C21.4306 1.40652 20.7039 0.932921 19.9069 0.632936C19.1428 0.337529 18.2707 0.131312 16.9955 0.0750879C15.7107 0.0141019 15.3029 0 12.0444 0C8.786 0 8.37815 0.0141019 7.09817 0.0703262C5.82296 0.126551 4.94627 0.332951 4.18678 0.628174C3.38023 0.932922 2.65828 1.40176 2.05813 2.01602C1.44864 2.61617 0.975218 3.34288 0.67505 4.13991C0.379643 4.90416 0.173426 5.77609 0.117202 7.0513C0.0562161 8.33604 0.0421143 8.7439 0.0421143 12.0023C0.0421143 15.2608 0.0562161 15.6686 0.11244 16.9486C0.168665 18.2238 0.375065 19.1005 0.670471 19.8602C0.975218 20.6666 1.44864 21.3885 2.05813 21.9887C2.65828 22.5982 3.38499 23.0718 4.18202 23.3718C4.94627 23.6672 5.8182 23.8734 7.0936 23.9296C8.37339 23.986 8.78142 23.9999 12.0399 23.9999C15.2983 23.9999 15.7062 23.986 16.9861 23.9296C18.2614 23.8734 19.1381 23.6672 19.8975 23.3718C21.5105 22.7482 22.7857 21.4729 23.4093 19.8602C23.7045 19.096 23.9109 18.2238 23.9671 16.9486C24.0233 15.6686 24.0374 15.2608 24.0374 12.0023C24.0374 8.7439 24.0327 8.33604 23.9765 7.05607ZM21.8152 16.8549C21.7636 18.027 21.5667 18.6599 21.4026 19.0819C20.9993 20.1274 20.1695 20.9572 19.1239 21.3605C18.702 21.5246 18.0645 21.7215 16.897 21.7729C15.6311 21.8293 15.2514 21.8433 12.0492 21.8433C8.84699 21.8433 8.46257 21.8293 7.20128 21.7729C6.02918 21.7215 5.39624 21.5246 4.97429 21.3605C4.45398 21.1682 3.98038 20.8634 3.59597 20.4649C3.19745 20.0758 2.89271 19.6069 2.70041 19.0866C2.53631 18.6647 2.33944 18.027 2.28797 16.8596C2.23157 15.5937 2.21765 15.2139 2.21765 12.0117C2.21765 8.80946 2.23157 8.42505 2.28797 7.16394C2.33944 5.99183 2.53631 5.3589 2.70041 4.93694C2.89271 4.41645 3.19745 3.94303 3.60073 3.55843C3.98972 3.15992 4.45856 2.85517 4.97905 2.66306C5.40101 2.49896 6.0387 2.30209 7.20604 2.25044C8.47192 2.19422 8.85175 2.18011 12.0538 2.18011C15.2608 2.18011 15.6404 2.19422 16.9017 2.25044C18.0738 2.30209 18.7068 2.49896 19.1287 2.66306C19.649 2.85517 20.1226 3.15992 20.507 3.55843C20.9055 3.94761 21.2103 4.41645 21.4026 4.93694C21.5667 5.3589 21.7636 5.99641 21.8152 7.16394C21.8714 8.42981 21.8855 8.80946 21.8855 12.0117C21.8855 15.2139 21.8714 15.589 21.8152 16.8549Z"/>
      <path d="M12.0445 5.83704C8.64086 5.83704 5.87927 8.59844 5.87927 12.0023C5.87927 15.4062 8.64086 18.1676 12.0445 18.1676C15.4484 18.1676 18.2098 15.4062 18.2098 12.0023C18.2098 8.59844 15.4484 5.83704 12.0445 5.83704ZM12.0445 16.0016C9.8364 16.0016 8.04528 14.2106 8.04528 12.0023C8.04528 9.79398 9.8364 8.00305 12.0445 8.00305C14.2529 8.00305 16.0438 9.79398 16.0438 12.0023C16.0438 14.2106 14.2529 16.0016 12.0445 16.0016Z"/>
      <path d="M19.8931 5.59336C19.8931 6.3882 19.2486 7.03267 18.4536 7.03267C17.6588 7.03267 17.0143 6.3882 17.0143 5.59336C17.0143 4.79835 17.6588 4.15405 18.4536 4.15405C19.2486 4.15405 19.8931 4.79835 19.8931 5.59336Z"/>
    </symbol>
    <symbol id="twitter-foot" viewBox="0 0 24 24">
      <path d="M24 4.5585C23.1075 4.95 22.1565 5.2095 21.165 5.3355C22.185 4.7265 22.9635 3.7695 23.3295 2.616C22.3785 3.183 21.3285 3.5835 20.2095 3.807C19.3065 2.8455 18.0195 2.25 16.6155 2.25C13.8915 2.25 11.6985 4.461 11.6985 7.1715C11.6985 7.5615 11.7315 7.9365 11.8125 8.2935C7.722 8.094 4.1025 6.1335 1.671 3.147C1.2465 3.8835 0.9975 4.7265 0.9975 5.634C0.9975 7.338 1.875 8.8485 3.183 9.723C2.3925 9.708 1.617 9.4785 0.96 9.117C0.96 9.132 0.96 9.1515 0.96 9.171C0.96 11.562 2.6655 13.548 4.902 14.0055C4.5015 14.115 4.065 14.1675 3.612 14.1675C3.297 14.1675 2.979 14.1495 2.6805 14.0835C3.318 16.032 5.127 17.4645 7.278 17.511C5.604 18.8205 3.4785 19.6095 1.1775 19.6095C0.774 19.6095 0.387 19.5915 0 19.542C2.1795 20.9475 4.7625 21.75 7.548 21.75C16.602 21.75 21.552 14.25 21.552 7.749C21.552 7.5315 21.5445 7.3215 21.534 7.113C22.5105 6.42 23.331 5.5545 24 4.5585Z"/>
    </symbol>
    <symbol id="facebook-foot" viewBox="0 0 24 24">
      <path d="M15.997 3.985H18.188V0.169C17.81 0.117 16.51 0 14.996 0C11.837 0 9.67301 1.987 9.67301 5.639V9H6.18701V13.266H9.67301V24H13.947V13.267H17.292L17.823 9.001H13.946V6.062C13.947 4.829 14.279 3.985 15.997 3.985Z"/>
    </symbol>
    <symbol id="linkedin-foot" viewBox="0 0 24 24">
      <path d="M23.994 24.0001V23.9991H24V15.1971C24 10.8911 23.073 7.5741 18.039 7.5741C15.619 7.5741 13.995 8.9021 13.332 10.1611H13.262V7.9761H8.48901V23.9991H13.459V16.0651C13.459 13.9761 13.855 11.9561 16.442 11.9561C18.991 11.9561 19.029 14.3401 19.029 16.1991V24.0001H23.994Z"/>
      <path d="M0.395996 7.97693H5.372V23.9999H0.395996V7.97693Z"/>
      <path d="M2.882 0C1.291 0 0 1.291 0 2.882C0 4.473 1.291 5.791 2.882 5.791C4.473 5.791 5.764 4.473 5.764 2.882C5.763 1.291 4.472 0 2.882 0V0Z"/>
    </symbol>
    <symbol id="antenna" viewBox="0 0 64 64">
      <path d="M61.5463 44.1952L44.6599 27.1851L46.534 17.9541C47.0176 18.1429 47.5318 18.2416 48.0508 18.2453H48.0636C50.4482 18.2735 52.404 16.3633 52.4323 13.9788C52.4606 11.5943 50.5503 9.6384 48.1658 9.61013C45.7812 9.582 43.8254 11.4921 43.7971 13.8767C43.7911 14.3869 43.8755 14.8941 44.0466 15.3749L34.1266 16.5856L17.9452 0.32C17.7467 0.117467 17.4757 0.00226667 17.1921 0C16.9121 0.00146667 16.644 0.112933 16.4455 0.3104L13.4204 3.3184C13.004 3.73493 13.004 4.41013 13.4204 4.82667L15.0481 6.47787C8.74201 18.0737 10.7903 32.4335 20.0871 41.8037C20.1724 41.8853 20.2713 41.9513 20.3793 41.9989C20.3121 42.3599 20.2771 42.7261 20.2748 43.0933V55.4667H7.47481C4.53081 55.4701 2.14495 57.856 2.14148 60.8V62.9333C2.14148 63.5224 2.61908 64 3.20815 64H52.2748C52.8639 64 53.3415 63.5224 53.3415 62.9333V60.8C53.338 57.856 50.9522 55.4701 48.0082 55.4667H35.2082V49.9829C37.2134 50.4035 39.2564 50.6179 41.3052 50.6229C46.2215 50.6176 51.0595 49.392 55.3852 47.056L57.0215 48.7019C57.22 48.9044 57.491 49.0196 57.7746 49.0219C58.0546 49.0204 58.3227 48.9089 58.5212 48.7115L61.5463 45.7035C61.9627 45.2869 61.9627 44.6117 61.5463 44.1952ZM46.5596 12.4661C47.395 11.6352 48.7458 11.6389 49.5766 12.4743C50.4075 13.3096 50.4038 14.6604 49.5684 15.4912C49.1686 15.8889 48.6275 16.1121 48.0635 16.112H48.0571C46.879 16.1059 45.9287 15.1459 45.9348 13.9676C45.9378 13.4036 46.1639 12.8639 46.5638 12.4661H46.5596ZM44.0487 19.4752L42.8519 25.3664L40.5009 23.0016L44.0487 19.4752ZM42.837 17.6715L38.997 21.4891L36.0263 18.5024L42.837 17.6715ZM48.0082 57.6C49.7755 57.6 51.2082 59.0327 51.2082 60.8V61.8667H4.27481V60.8C4.27481 59.0327 5.70748 57.6 7.47481 57.6H48.0082ZM33.0748 53.3333V55.4667H22.4081V53.3333H33.0748ZM22.4081 51.2V43.0933C22.4081 40.5056 24.8007 38.4 27.7415 38.4C30.6823 38.4 33.0748 40.5056 33.0748 43.0933V51.2H22.4081ZM35.2082 47.808V43.0933C35.2082 39.3291 31.8588 36.2667 27.7415 36.2667C25.0793 36.2259 22.59 37.5809 21.1793 39.8389C13.0639 31.2913 11.2364 18.5485 16.6221 8.06467L53.8258 45.4816C48.081 48.404 41.4955 49.2268 35.2082 47.808ZM57.7863 46.4405L56.2834 44.9291L17.1815 5.59147L15.6721 4.07893L17.1815 2.57493L33.0513 18.5344C33.0588 18.5344 33.0631 18.5483 33.0706 18.5536L59.2999 44.9365L57.7863 46.4405Z" fill="#2E2F42"/>
      <path d="M27.751 40.5333H27.7414C25.9741 40.5307 24.5393 41.9612 24.5366 43.7285C24.534 45.4959 25.9645 46.9307 27.7318 46.9333H27.7414C29.5088 46.936 30.9436 45.5055 30.9462 43.7381C30.9489 41.9708 29.5184 40.536 27.751 40.5333ZM28.4977 44.4896C28.2969 44.6893 28.0248 44.8011 27.7414 44.8C27.1524 44.7969 26.6773 44.3169 26.6804 43.7279C26.6818 43.4459 26.7949 43.176 26.9948 42.9771C27.1933 42.7796 27.4614 42.6681 27.7414 42.6667C28.3305 42.6697 28.8056 43.1497 28.8025 43.7388C28.801 44.0208 28.688 44.2907 28.4881 44.4896H28.4977Z" fill="#4D5AE5"/>
    </symbol>
    <symbol id="clock" viewBox="0 0 64 64">
      <path d="M62.5933 30.6025C62.5899 13.6978 48.8828 -0.00341734 31.9775 6.39362e-07C15.0728 0.00341861 1.37158 13.7109 1.375 30.6157C1.37793 43.9316 9.98877 55.7178 22.6738 59.7681C22.7949 59.8062 22.9209 59.8257 23.0474 59.8252C23.2886 59.8247 23.5249 59.7603 23.7324 59.6377C24.0024 59.478 24.2041 59.2241 24.2988 58.9248L32.0288 34.4248C34.1421 34.4141 35.8462 32.6919 35.835 30.5791C35.8242 28.4658 34.1025 26.7617 31.9893 26.7725C31.4209 26.7749 30.8599 26.9058 30.3491 27.1553L20.1372 16.9419C19.6304 16.4526 18.8232 16.4668 18.334 16.9731C17.8564 17.4678 17.8564 18.251 18.334 18.7456L28.5405 28.9639C27.7573 30.5625 28.2051 32.4922 29.6133 33.582L22.248 56.9277C7.69238 51.5659 0.239258 35.4199 5.60108 20.8643C10.9629 6.30859 27.1089 -1.14453 41.6646 4.21729C56.2202 9.5791 63.6733 25.7256 58.3115 40.2808C55.6919 47.3921 50.3096 53.1431 43.3872 56.2275L42.5913 52.479C42.4458 51.79 41.7686 51.3496 41.0796 51.4956C40.8623 51.542 40.6606 51.6441 40.4946 51.792L32.8208 58.6431C32.2944 59.1113 32.2476 59.9175 32.7163 60.4439C32.8687 60.6148 33.064 60.7417 33.2827 60.8115L43.0801 63.9385C43.7505 64.1538 44.4688 63.7852 44.6841 63.1143C44.7524 62.9024 44.7637 62.6768 44.7178 62.459L43.9356 58.7808C55.2642 54.0049 62.6196 42.8965 62.5933 30.6025ZM31.9844 29.3272C32.6885 29.3272 33.2598 29.8984 33.2598 30.6025C33.2598 31.3071 32.6885 31.8779 31.9844 31.8779C31.2798 31.8779 30.709 31.3071 30.709 30.6025C30.709 29.8984 31.2798 29.3272 31.9844 29.3272ZM36.1851 59.0552L40.5532 55.1587L41.7588 60.8394L36.1851 59.0552Z" fill="#2E2F42"/>
      <path d="M30.709 6.37012V8.9209C30.709 9.62549 31.2798 10.1963 31.9844 10.1963C32.6885 10.1963 33.2598 9.62549 33.2598 8.9209V6.37012C33.2598 5.66602 32.6885 5.09473 31.9844 5.09473C31.2798 5.09473 30.709 5.66602 30.709 6.37012Z" fill="#4D5AE5"/>
      <path d="M7.75195 29.3271C7.04736 29.3271 6.47656 29.8984 6.47656 30.6025C6.47656 31.3071 7.04736 31.8779 7.75195 31.8779H10.3027C11.0073 31.8779 11.5781 31.3071 11.5781 30.6025C11.5781 29.8984 11.0073 29.3271 10.3027 29.3271H7.75195Z" fill="#4D5AE5"/>
      <path d="M56.2163 31.8779C56.9209 31.8779 57.4917 31.3071 57.4917 30.6025C57.4917 29.8984 56.9209 29.3271 56.2163 29.3271H53.6655C52.9614 29.3271 52.3901 29.8984 52.3901 30.6025C52.3901 31.3071 52.9614 31.8779 53.6655 31.8779H56.2163Z" fill="#4D5AE5"/>
    </symbol>
    <symbol id="diagrama" viewBox="0 0 64 64">
      <path d="M29.8511 29.9292H31.9833V39.5242H29.8511V29.9292Z" fill="#4D5AE5"/>
      <path d="M38.3799 34.1937H40.5121V39.5242H38.3799V34.1937Z" fill="#4D5AE5"/>
      <path d="M21.3221 37.392H23.4544V39.5242H21.3221V37.392Z" fill="#4D5AE5"/>
      <path d="M14.9255 36.3259H17.0578V39.5242H14.9255V36.3259Z" fill="#4D5AE5"/>
      <path d="M3.19833 56.5819H54.3715C56.1378 56.5819 57.5699 55.1499 57.5699 53.3836V49.1192C57.5699 47.3529 56.1378 45.9208 54.3715 45.9208H53.3054V19.3342L59.3611 13.5976C60.7666 14.2905 62.4678 13.8699 63.3876 12.6003C64.308 11.3311 64.1789 9.58361 63.0826 8.46336C61.9863 7.34311 60.2424 7.17601 58.953 8.06773C57.6641 8.95997 57.206 10.6513 57.8681 12.0719L53.3054 16.3972V13.9376C53.3054 12.1713 51.8734 10.7393 50.1071 10.7393H7.46276C5.6965 10.7393 4.26443 12.1713 4.26443 13.9376V45.9208H3.19833C1.43206 45.9208 0 47.3529 0 49.1192V53.3836C0 55.1499 1.43206 56.5819 3.19833 56.5819ZM60.7682 9.67314C61.3569 9.67314 61.8343 10.1505 61.8343 10.7393C61.8343 11.328 61.3569 11.8054 60.7682 11.8054C60.1794 11.8054 59.7021 11.328 59.7021 10.7393C59.7021 10.1505 60.1794 9.67314 60.7682 9.67314ZM6.39665 13.9376C6.39665 13.3488 6.874 12.8715 7.46276 12.8715H50.1071C50.6958 12.8715 51.1732 13.3488 51.1732 13.9376V18.4149L49.041 20.4409V16.0698C49.041 15.481 48.5636 15.0037 47.9749 15.0037H9.59498C9.00622 15.0037 8.52887 15.481 8.52887 16.0698V42.7225C8.52887 43.3113 9.00622 43.7886 9.59498 43.7886H47.9749C48.5636 43.7886 49.041 43.3113 49.041 42.7225V23.3738L51.1732 21.3535V45.9208H6.39665V13.9376ZM15.9916 27.797C14.5492 27.7928 13.2826 28.7538 12.899 30.1442C12.5153 31.5346 13.1093 33.0094 14.3498 33.7454C15.5898 34.4815 17.1697 34.2967 18.2061 33.2936L21.912 35.153C22.3425 35.3685 22.8646 35.2676 23.1847 34.9078L31.0624 26.0453L38.8062 31.848C39.2216 32.1593 39.8016 32.126 40.1784 31.7694L46.9088 25.3941V41.6564H10.6611V17.1359H46.9088V22.4566L39.3658 29.5997L31.5569 23.7455C31.1134 23.4133 30.4892 23.4758 30.1207 23.8897L22.1348 32.8751L19.1493 31.3821C19.1712 31.254 19.1847 31.1249 19.19 30.9953C19.19 29.2291 17.7579 27.797 15.9916 27.797ZM17.0577 30.9953C17.0577 31.5841 16.5804 32.0614 15.9916 32.0614C15.4029 32.0614 14.9255 31.5841 14.9255 30.9953C14.9255 30.4066 15.4029 29.9292 15.9916 29.9292C16.5804 29.9292 17.0577 30.4066 17.0577 30.9953ZM23.4544 48.0531H34.1155V49.1192C34.1155 49.7079 33.6381 50.1853 33.0494 50.1853H24.5205C23.9317 50.1853 23.4544 49.7079 23.4544 49.1192V48.0531ZM2.13222 49.1192C2.13222 48.5304 2.60957 48.0531 3.19833 48.0531H21.3222V49.1192C21.3222 50.8854 22.7542 52.3175 24.5205 52.3175H33.0494C34.8156 52.3175 36.2477 50.8854 36.2477 49.1192V48.0531H54.3715C54.9603 48.0531 55.4376 48.5304 55.4376 49.1192V53.3836C55.4376 53.9723 54.9603 54.4497 54.3715 54.4497H3.19833C2.60957 54.4497 2.13222 53.9723 2.13222 53.3836V49.1192Z" fill="#2E2F42"/>
    </symbol>
    <symbol id="astronaut" viewBox="0 0 64 64">
      <path d="M63.9481 9.04812C63.8223 8.66299 63.4895 8.38149 63.0874 8.32274L59.2666 7.76698L57.5567 4.30455C57.1983 3.57492 56.0025 3.57492 55.6441 4.30455L53.9342 7.76698L50.1133 8.32286C49.7112 8.38149 49.3784 8.66212 49.2514 9.04825C49.1267 9.43438 49.23 9.85889 49.5213 10.1416L52.2872 12.8372L51.6345 16.6431C51.5662 17.0431 51.7305 17.4474 52.058 17.6864C52.3897 17.9275 52.8227 17.9573 53.1822 17.7674L56.5999 15.97L60.0176 17.7674C60.1733 17.8495 60.3451 17.89 60.5147 17.89C60.7355 17.89 60.9563 17.8218 61.142 17.6863C61.4705 17.4474 61.6347 17.043 61.5655 16.643L60.9127 12.8371L63.6786 10.1415C63.9684 9.85776 64.073 9.43425 63.9481 9.04812ZM59.0223 11.702C58.7717 11.9463 58.6564 12.3004 58.7162 12.6461L59.0981 14.8743L57.097 13.8226C56.9413 13.7404 56.7707 13.6999 56.5999 13.6999C56.4293 13.6999 56.2596 13.7404 56.1028 13.8226L54.1016 14.8743L54.4835 12.6461C54.5432 12.3004 54.428 11.9474 54.1774 11.702L52.5571 10.1234L54.795 9.79801C55.1428 9.74788 55.4425 9.52926 55.5983 9.2145L56.5988 7.18785L57.5993 9.2145C57.755 9.52913 58.0548 9.74788 58.4026 9.79801L60.6405 10.1234L59.0223 11.702Z" fill="#4D5AE5"/>
      <path d="M52.267 41.0444H50.1335V43.1778H52.267V41.0444Z" fill="#4D5AE5"/>
      <path d="M52.267 45.3112H50.1335V47.4446H52.267V45.3112Z" fill="#4D5AE5"/>
      <path d="M54.4004 43.1778H52.267V45.3112H54.4004V43.1778Z" fill="#4D5AE5"/>
      <path d="M50.1337 43.1778H48.0002V45.3112H50.1337V43.1778Z" fill="#4D5AE5"/>
      <path d="M44.8002 52.778H42.6668V54.9113H44.8002V52.778Z" fill="#4D5AE5"/>
      <path d="M44.8002 57.0446H42.6668V59.178H44.8002V57.0446Z" fill="#4D5AE5"/>
      <path d="M46.9336 54.9114H44.8002V57.0448H46.9336V54.9114Z" fill="#4D5AE5"/>
      <path d="M42.6668 54.9114H40.5334V57.0448H42.6668V54.9114Z" fill="#4D5AE5"/>
      <path d="M32 48.5113H29.8666V50.6447H32V48.5113Z" fill="#4D5AE5"/>
      <path d="M32 52.778H29.8666V54.9113H32V52.778Z" fill="#4D5AE5"/>
      <path d="M34.1334 50.6445H32V52.7779H34.1334V50.6445Z" fill="#4D5AE5"/>
      <path d="M29.8666 50.6445H27.7332V52.7779H29.8666V50.6445Z" fill="#4D5AE5"/>
      <path d="M11.733 12.244H9.59961V14.3774H11.733V12.244Z" fill="#4D5AE5"/>
      <path d="M11.733 16.5107H9.59961V18.6442H11.733V16.5107Z" fill="#4D5AE5"/>
      <path d="M13.8663 14.3774H11.7329V16.5108H13.8663V14.3774Z" fill="#4D5AE5"/>
      <path d="M9.59965 14.3774H7.46625V16.5108H9.59965V14.3774Z" fill="#4D5AE5"/>
      <path d="M49.4295 28.3189C48.8546 27.5434 48.0109 27.0443 47.053 26.9098C46.0908 26.7733 45.1414 27.026 44.3734 27.6138L41.8699 29.5327L41.8688 29.5338L38.0734 32.368L35.3577 31.2863C40.2004 29.1135 43.585 24.2697 43.585 18.6461C43.585 11.0001 37.3396 4.7793 29.6627 4.7793C21.9858 4.7793 15.7405 11.0001 15.7405 18.6461C15.7405 21.4174 16.5692 23.9945 17.9805 26.163L12.4529 26.115C12.4497 26.115 12.4465 26.115 12.4433 26.115C12.4262 26.115 12.4124 26.1235 12.3964 26.1246C12.2908 26.1289 12.1873 26.1503 12.086 26.1865C12.0604 26.1961 12.0338 26.2015 12.0093 26.2131C11.9965 26.2185 11.9837 26.2195 11.9709 26.2259L5.50468 29.4184C5.50356 29.4184 5.50256 29.4184 5.50256 29.4194L1.71575 31.2405C1.67412 31.2586 1.6315 31.2831 1.58987 31.3108C0.0804746 32.3156 -0.433659 34.289 0.393104 35.9018C0.833611 36.7594 1.5835 37.3909 2.50514 37.6799C2.86039 37.7908 3.22302 37.8453 3.58353 37.8453C4.16279 37.8453 4.73667 37.7034 5.26243 37.4229L8.03798 35.9466L12.566 33.6085L15.2797 33.5925L4.39629 44.4237C4.39529 44.4248 4.39417 44.4248 4.39304 44.4258L1.71563 47.0924C1.08312 47.7218 0.73536 48.557 0.73536 49.4477C0.73536 50.3374 1.08312 51.1746 1.71563 51.8051C2.36526 52.4515 3.21965 52.7758 4.07404 52.7758C4.92955 52.7758 5.78281 52.4515 6.43457 51.8051L9.06287 49.1875L12.5445 46.5879L14.3462 48.3821L10.8229 51.8904C10.8219 51.8915 10.8208 51.8915 10.8196 51.8925L8.14223 54.5592C7.50972 55.1886 7.16196 56.0237 7.16196 56.9145C7.16196 57.8041 7.50972 58.6414 8.14223 59.2719C8.79186 59.9183 9.64738 60.2425 10.5018 60.2425C11.3562 60.2425 12.2117 59.9183 12.8623 59.2719L15.5407 56.6052L19.8255 52.3385C19.8267 52.3374 19.8267 52.3364 19.8277 52.3353L21.8469 50.3352L21.8394 50.3277C21.8522 50.315 21.8703 50.3106 21.8832 50.2969L32.2151 38.9804L39.1571 39.9682C39.2072 39.9757 39.2573 39.9788 39.3075 39.9788C39.4366 39.9788 39.5613 39.948 39.6819 39.9021C39.7171 39.8893 39.748 39.8722 39.7811 39.8552C39.8195 39.836 39.86 39.8253 39.8964 39.8008L46.3231 35.5341C46.3466 35.5181 46.3593 35.4925 46.3817 35.4755C46.4073 35.4553 46.4393 35.4468 46.4627 35.4243L49.0056 33.0424C50.3288 31.8026 50.5111 29.7717 49.4295 28.3189ZM4.26079 35.5403C3.91416 35.7259 3.52053 35.7631 3.14402 35.6438C2.77064 35.5275 2.46776 35.2725 2.29063 34.928C1.9685 34.3008 2.15513 33.537 2.71939 33.1242L5.34668 31.8602L5.97919 33.7087L6.24482 34.4853L4.26079 35.5403ZM11.255 31.8848L8.15848 33.4849L7.64759 31.9915L7.28071 30.9183L11.3342 28.9172L11.255 31.8848ZM41.4539 18.644C41.4539 20.4808 41.0155 22.2132 40.256 23.763L31.8932 19.9645C31.8057 18.8179 31.2106 17.8141 30.3167 17.189L33.2447 7.46834C38.0001 8.98099 41.4539 13.4173 41.4539 18.644ZM17.876 18.644C17.876 12.1745 23.1646 6.91045 29.6649 6.91045C30.1706 6.91045 30.6655 6.95308 31.1551 7.01496L28.291 16.5224C28.2527 16.5212 28.2164 16.5106 28.1769 16.5106C26.1118 16.5106 24.4317 18.1853 24.4317 20.244C24.4317 22.3027 26.1118 23.9775 28.1769 23.9775C29.5657 23.9775 30.7657 23.2106 31.4132 22.0883L39.1381 25.5977C36.9887 28.4905 33.5486 30.3776 29.6648 30.3776C23.1646 30.3776 17.876 25.1135 17.876 18.644ZM29.7887 20.244C29.7887 21.1262 29.0654 21.8441 28.1769 21.8441C27.2884 21.8441 26.5651 21.1262 26.5651 20.244C26.5651 19.3619 27.2884 18.644 28.1769 18.644C29.0654 18.644 29.7887 19.3619 29.7887 20.244ZM4.92968 50.2925C4.45717 50.7608 3.69228 50.7598 3.2209 50.2936C2.99365 50.0664 2.86889 49.7667 2.86889 49.4477C2.86889 49.1299 2.99365 48.8301 3.2209 48.6051L5.14505 46.6882L6.84746 48.3832L4.92968 50.2925ZM11.3574 57.7594C10.8849 58.2276 10.119 58.2287 9.6475 57.7605C9.42025 57.5332 9.29549 57.2336 9.29549 56.9146C9.29549 56.5967 9.42025 56.297 9.6475 56.072L11.5729 54.1541L12.3783 54.9552L13.2764 55.8491L11.3574 57.7594ZM18.3208 50.8216C18.3196 50.8226 18.3186 50.8226 18.3175 50.8238L14.7878 54.3438L13.9824 53.5427L13.0843 52.6488L16.6107 49.1384C16.6107 49.1384 16.6107 49.1384 16.6107 49.1374C16.6119 49.1362 16.6129 49.1362 16.614 49.1352C16.694 49.0552 16.7441 48.9592 16.7932 48.8643C16.8071 48.8366 16.8337 48.8131 16.8455 48.7843C16.8786 48.7022 16.8839 48.6137 16.8967 48.5272C16.9031 48.4781 16.9245 48.4323 16.9245 48.3821C16.9245 48.3106 16.8989 48.2413 16.884 48.1708C16.8712 48.1068 16.8712 48.0417 16.8466 47.98C16.8061 47.8797 16.7367 47.7912 16.6642 47.7047C16.644 47.6812 16.6365 47.6513 16.6141 47.629C16.6141 47.629 16.6141 47.629 16.613 47.629C16.6119 47.628 16.6119 47.6257 16.6109 47.6247L13.3969 44.4247C13.3628 44.3905 13.3191 44.3767 13.2807 44.3479C13.2242 44.3042 13.1698 44.2637 13.1068 44.2327C13.0461 44.2028 12.9842 44.1847 12.9202 44.1675C12.8519 44.1483 12.7858 44.1334 12.7143 44.128C12.6492 44.1238 12.5884 44.1302 12.5234 44.1377C12.4519 44.1462 12.3848 44.1558 12.3154 44.1782C12.2482 44.1995 12.1885 44.2325 12.1267 44.2678C12.0872 44.2902 12.0424 44.2977 12.005 44.3254L8.45836 46.9729L6.6567 45.1788L11.4547 40.4065L20.1759 48.9837L18.3208 50.8216ZM31.9584 36.7883C31.9275 36.784 31.8986 36.7958 31.8677 36.7937C31.7898 36.7894 31.7152 36.7948 31.6373 36.8075C31.5766 36.8182 31.519 36.8299 31.4613 36.8502C31.3931 36.8737 31.3312 36.9057 31.2682 36.944C31.2085 36.9803 31.1541 37.0187 31.1018 37.0667C31.0762 37.089 31.0453 37.0998 31.0218 37.1253L21.6253 47.4167L12.9692 38.9034L18.6354 33.2671C19.0525 32.8511 19.0546 32.1758 18.6386 31.7577C18.4285 31.5476 18.1523 31.4441 17.876 31.4452V31.4442L13.4386 31.4708L13.4941 28.2559L19.7022 28.3093C22.2323 30.8971 25.7609 32.511 29.6649 32.511C30.5396 32.511 31.393 32.4203 32.2239 32.2656C32.3039 32.3296 32.3827 32.3947 32.4831 32.4352L37.3024 34.3553L37.6074 35.872L37.9637 37.6427L31.9584 36.7883ZM40.0406 37.1445L39.4145 34.0287L42.3073 31.8687L43.0647 32.8735L44.2007 34.3818L40.0406 37.1445ZM47.5478 31.4826L45.8721 33.0527L44.0097 30.5802L45.6726 29.3055C45.9829 29.0667 46.3745 28.9695 46.7585 29.0197C47.1446 29.074 47.486 29.2757 47.7185 29.5882C48.1516 30.1717 48.078 30.9856 47.5478 31.4826Z" fill="#2E2F42"/>
      <path d="M27.2042 37.0881L22.9182 32.8214C22.5033 32.4065 21.8291 32.4065 21.4131 32.8214L17.1283 37.0881C16.9278 37.2897 16.8146 37.5606 16.8146 37.8444C16.8146 38.1281 16.9266 38.4001 17.1283 38.6006L21.4131 42.8673C21.6211 43.0742 21.8942 43.1777 22.1662 43.1777C22.4382 43.1777 22.7112 43.0742 22.9182 42.8673L27.2042 38.6006C27.4047 38.4001 27.5188 38.1281 27.5188 37.8444C27.5188 37.5606 27.4057 37.2886 27.2042 37.0881ZM22.1662 40.606L19.3928 37.8444L22.1662 35.0827L24.9406 37.8444L22.1662 40.606Z" fill="#2E2F42"/>
      <path d="M34.3285 10.1415L33.8133 12.2131C33.9552 12.2483 37.2886 13.1166 37.2886 16.5108H39.422C39.4219 12.4765 36.0907 10.5799 34.3285 10.1415Z" fill="#2E2F42"/>
      <path d="M39.422 18.644H37.2886V20.7775H39.422V18.644Z" fill="#2E2F42"/>
    </symbol>
    <symbol id="close" viewBox="0 0 24 24">
      <path d="M16 8.80571L15.1943 8L12 11.1943L8.80571 8L8 8.80571L11.1943 12L8 15.1943L8.80571 16L12 12.8057L15.1943 16L16 15.1943L12.8057 12L16 8.80571Z"/>
    </symbol>
    <symbol id="person" viewBox="0 0 20 24">
      <path d="M9 12C10.6575 12 12 10.6575 12 9C12 7.3425 10.6575 6 9 6C7.3425 6 6 7.3425 6 9C6 10.6575 7.3425 12 9 12ZM9 13.5C6.9975 13.5 3 14.505 3 16.5V17.25C3 17.6625 3.3375 18 3.75 18H14.25C14.6625 18 15 17.6625 15 17.25V16.5C15 14.505 11.0025 13.5 9 13.5Z"/>
    </symbol>
    <symbol id="phone" viewBox="0 0 18 24">
      <path d="M14.7263 13.8651L12.8881 13.6552C12.4467 13.6046 12.0125 13.7566 11.7013 14.0677L10.3697 15.3993C8.3217 14.3572 6.64276 12.6855 5.60067 10.6303L6.93947 9.29144C7.25065 8.98025 7.40263 8.54605 7.35197 8.1046L7.1421 6.28092C7.05526 5.55 6.44013 5 5.70198 5H4.45002C3.63226 5 2.952 5.68026 3.00266 6.49802C3.38621 12.6783 8.32894 17.6138 14.5019 17.9973C15.3197 18.048 15.9999 17.3677 15.9999 16.55V15.298C16.0072 14.5671 15.4572 13.952 14.7263 13.8651Z"/>
    </symbol>
    <symbol id="email" viewBox="0 0 18 24">
      <path d="M15 6H3C2.175 6 1.5075 6.675 1.5075 7.5L1.5 16.5C1.5 17.325 2.175 18 3 18H15C15.825 18 16.5 17.325 16.5 16.5V7.5C16.5 6.675 15.825 6 15 6ZM14.7 9.1875L9.3975 12.5025C9.1575 12.6525 8.8425 12.6525 8.6025 12.5025L3.3 9.1875C3.1125 9.0675 3 8.865 3 8.6475C3 8.145 3.5475 7.845 3.975 8.1075L9 11.25L14.025 8.1075C14.4525 7.845 15 8.145 15 8.6475C15 8.865 14.8875 9.0675 14.7 9.1875Z"/>
    </symbol>
    <symbol id="checkbox-icon" viewBox="0 0 10 8">
      <path d="M8.44558 0.255056C8.61838 0.089653 8.84834 -0.00178848 9.08693 2.65108e-05C9.32551 0.0018415 9.55407 0.0967713 9.72436 0.264784C9.89466 0.432797 9.99337 0.660752 9.99968 0.900549C10.006 1.14034 9.91939 1.37323 9.75816 1.55005L4.86357 7.70436C4.7794 7.79551 4.67782 7.86865 4.5649 7.91942C4.45198 7.97018 4.33003 7.99754 4.20636 7.99984C4.08268 8.00214 3.95981 7.97935 3.8451 7.93282C3.73038 7.88629 3.62618 7.81698 3.53872 7.72903L0.292827 4.46564C0.202435 4.38096 0.129933 4.27884 0.0796475 4.16537C0.0293621 4.05191 0.00232279 3.92942 0.000143182 3.80522C-0.00203643 3.68102 0.0206883 3.55765 0.0669613 3.44248C0.113234 3.3273 0.182108 3.22267 0.269473 3.13483C0.356838 3.047 0.460905 2.97775 0.575465 2.93123C0.690026 2.88471 0.812734 2.86186 0.936267 2.86405C1.0598 2.86624 1.18163 2.89343 1.29449 2.94398C1.40734 2.99454 1.50892 3.06743 1.59315 3.15831L4.16189 5.73967L8.42227 0.28219C8.42994 0.272694 8.43813 0.263635 8.4468 0.255056H8.44558Z" fill="#F4F4FD"/>
    </symbol>
    <symbol id="footeremail" viewBox="0 0 24 24">
      <path d="M24 2L0 13.25L7.66994 15.6172L19.5 6.375L10.5017 16.4913L10.509 16.4936L10.5 16.4913V22L14.8013 17.8183L20.2501 19.5L24 2Z" fill="white"/>
    </symbol>
  </defs>
</svg>